<svg width="113" height="26" viewBox="0 0 113 26" fill="none" xmlns="http://www.w3.org/2000/svg">
<path d="M111 0C112.105 0 113 0.895431 113 2V24C113 25.1046 112.105 26 111 26H9C7.89543 26 7 25.1046 7 24V20C3.13401 20 0 16.866 0 13C0 9.13401 3.13401 6 7 6V2C7 0.895431 7.89543 1.61064e-08 9 0H111Z" fill="#D6EEFF"/>
<mask id="path-2-inside-1_208_140" fill="white">
<path d="M110 2C110.552 2.00001 111 2.44772 111 3V23C111 23.5523 110.552 24 110 24H9.75195C9.19978 23.9999 8.75195 23.5522 8.75195 23V18.9229C5.02299 18.9227 2.00011 16.2711 2 13C2 9.72883 5.02293 7.07727 8.75195 7.07715V3C8.75195 2.4478 9.19978 2.00013 9.75195 2H110Z"/>
</mask>
<path d="M110 2L110 1.5H110V2ZM110 24V24.5H110L110 24ZM9.75195 24L9.75183 24.5H9.75195V24ZM8.75195 18.9229H9.25195V18.4229L8.75197 18.4229L8.75195 18.9229ZM2 13H1.5V13L2 13ZM8.75195 7.07715L8.75197 7.57715L9.25195 7.57713V7.07715H8.75195ZM8.75195 3L8.25195 3V3H8.75195ZM9.75195 2V1.5H9.75183L9.75195 2ZM110 2V1.5H108.072V2V2.5H110V2ZM104.216 2V1.5H100.361V2V2.5H104.216V2ZM96.5051 2V1.5H92.6494V2V2.5H96.5051V2ZM88.7937 2V1.5H84.938V2V2.5H88.7937V2ZM81.0823 2V1.5H77.2266V2V2.5H81.0823V2ZM73.3709 2V1.5H69.5152V2V2.5H73.3709V2ZM65.6595 2V1.5H61.8038V2V2.5H65.6595V2ZM57.9481 2V1.5H54.0924V2V2.5H57.9481V2ZM50.2367 2V1.5H46.3811V2V2.5H50.2367V2ZM42.5254 2V1.5H38.6697V2V2.5H42.5254V2ZM34.814 2V1.5H30.9583V2V2.5H34.814V2ZM27.1026 2V1.5H23.2469V2V2.5H27.1026V2ZM19.3912 2V1.5H15.5355V2V2.5H19.3912V2ZM11.6798 2V1.5H9.75195V2V2.5H11.6798V2ZM9.75195 2L9.75183 1.5C8.92373 1.5002 8.25195 2.17154 8.25195 3L8.75195 3L9.25195 3C9.25195 2.72406 9.47583 2.50007 9.75207 2.5L9.75195 2ZM8.75195 3H8.25195V4.01929H8.75195H9.25195V3H8.75195ZM8.75195 6.05786H8.25195V7.07715H8.75195H9.25195V6.05786H8.75195ZM8.75195 7.07715L8.75194 6.57715C7.8335 6.57718 6.95331 6.72844 6.14232 7.00532L6.30387 7.4785L6.46542 7.95168C7.17241 7.7103 7.94346 7.57718 8.75197 7.57715L8.75195 7.07715ZM2.57747 10.5997L2.13133 10.3739C1.72629 11.1745 1.5 12.0637 1.5 13H2H2.5C2.5 12.2274 2.68622 11.4923 3.02362 10.8254L2.57747 10.5997ZM2 13L1.5 13C1.50003 13.9363 1.72635 14.8255 2.13139 15.626L2.57753 15.4003L3.02368 15.1746C2.68626 14.5077 2.50003 13.7726 2.5 13L2 13ZM6.30389 18.5215L6.14233 18.9947C6.95331 19.2716 7.8335 19.4228 8.75194 19.4229L8.75195 18.9229L8.75197 18.4229C7.94347 18.4228 7.17243 18.2897 6.46545 18.0483L6.30389 18.5215ZM8.75195 18.9229H8.25195V19.9421H8.75195H9.25195V18.9229H8.75195ZM8.75195 21.9807H8.25195V23H8.75195H9.25195V21.9807H8.75195ZM8.75195 23H8.25195C8.25195 23.8285 8.92373 24.4998 9.75183 24.5L9.75195 24L9.75207 23.5C9.47583 23.4999 9.25195 23.2759 9.25195 23H8.75195ZM9.75195 24V24.5H11.6798V24V23.5H9.75195V24ZM15.5355 24V24.5H19.3912V24V23.5H15.5355V24ZM23.2469 24V24.5H27.1026V24V23.5H23.2469V24ZM30.9583 24V24.5H34.814V24V23.5H30.9583V24ZM38.6697 24V24.5H42.5254V24V23.5H38.6697V24ZM46.381 24V24.5H50.2367V24V23.5H46.381V24ZM54.0924 24V24.5H57.9481V24V23.5H54.0924V24ZM61.8038 24V24.5H65.6595V24V23.5H61.8038V24ZM69.5152 24V24.5H73.3709V24V23.5H69.5152V24ZM77.2266 24V24.5H81.0823V24V23.5H77.2266V24ZM84.938 24V24.5H88.7937V24V23.5H84.938V24ZM92.6494 24V24.5H96.5051V24V23.5H92.6494V24ZM100.361 24V24.5H104.216V24V23.5H100.361V24ZM108.072 24V24.5H110V24V23.5H108.072V24ZM110 24L110 24.5C110.828 24.5 111.5 23.8284 111.5 23H111H110.5C110.5 23.2761 110.276 23.5 110 23.5L110 24ZM111 23H111.5V21.3333H111H110.5V23H111ZM111 18H111.5V14.6667H111H110.5V18H111ZM111 11.3333H111.5V8H111H110.5V11.3333H111ZM111 4.66667H111.5V3H111H110.5V4.66667H111ZM111 3H111.5C111.5 2.17157 110.828 1.50001 110 1.5L110 2L110 2.5C110.276 2.5 110.5 2.72387 110.5 3H111ZM110 2L110 1H110V2ZM110 24V25H110L110 24ZM9.75195 24L9.75171 25H9.75195V24ZM8.75195 18.9229H9.75195V17.9229L8.75199 17.9229L8.75195 18.9229ZM2 13H1V13L2 13ZM8.75195 7.07715L8.75199 8.07715L9.75195 8.07712V7.07715H8.75195ZM8.75195 3L7.75195 3V3H8.75195ZM9.75195 2V1H9.75171L9.75195 2ZM110 2V1H108.072V2V3H110V2ZM104.216 2V1H100.361V2V3H104.216V2ZM96.5051 2V1H92.6494V2V3H96.5051V2ZM88.7937 2V1H84.938V2V3H88.7937V2ZM81.0823 2V1H77.2266V2V3H81.0823V2ZM73.3709 2V1H69.5152V2V3H73.3709V2ZM65.6595 2V1H61.8038V2V3H65.6595V2ZM57.9481 2V1H54.0924V2V3H57.9481V2ZM50.2367 2V1H46.3811V2V3H50.2367V2ZM42.5254 2V1H38.6697V2V3H42.5254V2ZM34.814 2V1H30.9583V2V3H34.814V2ZM27.1026 2V1H23.2469V2V3H27.1026V2ZM19.3912 2V1H15.5355V2V3H19.3912V2ZM11.6798 2V1H9.75195V2V3H11.6798V2ZM9.75195 2L9.75171 1C8.64769 1.00027 7.75195 1.89527 7.75195 3L8.75195 3L9.75195 3L9.7522 3L9.75195 2ZM8.75195 3H7.75195V4.01929H8.75195H9.75195V3H8.75195ZM8.75195 6.05786H7.75195V7.07715H8.75195H9.75195V6.05786H8.75195ZM8.75195 7.07715L8.75192 6.07715C7.77852 6.07718 6.84375 6.2375 5.98076 6.53214L6.30387 7.4785L6.62697 8.42487C7.28197 8.20124 7.99843 8.07717 8.75199 8.07715L8.75195 7.07715ZM2.57747 10.5997L1.68518 10.1482C1.24633 11.0156 1 11.9818 1 13H2H3C3 12.3093 3.16618 11.6511 3.46977 11.0511L2.57747 10.5997ZM2 13L1 13C1.00003 14.0182 1.24639 14.9844 1.68525 15.8518L2.57753 15.4003L3.46982 14.9488C3.16622 14.3488 3.00002 13.6907 3 13L2 13ZM6.30389 18.5215L5.98077 19.4678C6.84375 19.7625 7.77852 19.9228 8.75192 19.9229L8.75195 18.9229L8.75199 17.9229C7.99845 17.9228 7.282 17.7988 6.627 17.5751L6.30389 18.5215ZM8.75195 18.9229H7.75195V19.9421H8.75195H9.75195V18.9229H8.75195ZM8.75195 21.9807H7.75195V23H8.75195H9.75195V21.9807H8.75195ZM8.75195 23H7.75195C7.75195 24.1047 8.64769 24.9997 9.75171 25L9.75195 24L9.7522 23H9.75195H8.75195ZM9.75195 24V25H11.6798V24V23H9.75195V24ZM15.5355 24V25H19.3912V24V23H15.5355V24ZM23.2469 24V25H27.1026V24V23H23.2469V24ZM30.9583 24V25H34.814V24V23H30.9583V24ZM38.6697 24V25H42.5254V24V23H38.6697V24ZM46.381 24V25H50.2367V24V23H46.381V24ZM54.0924 24V25H57.9481V24V23H54.0924V24ZM61.8038 24V25H65.6595V24V23H61.8038V24ZM69.5152 24V25H73.3709V24V23H69.5152V24ZM77.2266 24V25H81.0823V24V23H77.2266V24ZM84.938 24V25H88.7937V24V23H84.938V24ZM92.6494 24V25H96.5051V24V23H92.6494V24ZM100.361 24V25H104.216V24V23H100.361V24ZM108.072 24V25H110V24V23H108.072V24ZM110 24L110 25C111.105 25 112 24.1046 112 23H111H110H110L110 24ZM111 23H112V21.3333H111H110V23H111ZM111 18H112V14.6667H111H110V18H111ZM111 11.3333H112V8H111H110V11.3333H111ZM111 4.66667H112V3H111H110V4.66667H111ZM111 3H112C112 1.89542 111.105 1.00001 110 1L110 2L110 3H110H111Z" fill="#0079CF" mask="url(#path-2-inside-1_208_140)"/>
</svg>
